<?xml version="1.0" encoding="UTF-8"?>
<svg width="16px" height="16px" viewBox="0 0 16 16" version="1.1" xmlns="http://www.w3.org/2000/svg" xmlns:xlink="http://www.w3.org/1999/xlink">
    <title>C02</title>
    <g id="Menu-|-Footer-|-LS-|-FC" stroke="none" stroke-width="1" fill="none" fill-rule="evenodd">
        <g id="FC-Default-Multi-Mobile-375-x-665-French" transform="translate(-165.000000, -647.000000)">
            <g id="Group-9-Copy-2" transform="translate(22.000000, 645.000000)">
                <g id="Group-6" transform="translate(5.000000, 2.000000)">
                    <g id="C02" transform="translate(138.000000, 0.000000)">
                        <circle id="Oval" stroke="#FFFFFF" stroke-width="0.9" cx="8" cy="8" r="7.55"></circle>
                        <g id="Group-2" transform="translate(3.309690, 4.976941)" fill="#FFFFFF" fill-rule="nonzero">
                            <g id="CO">
                                <path d="M1.56680214,5.48141176 C2.47703957,5.48141176 3.13360428,4.80376471 3.13360428,3.87011765 L3.13360428,3.79482353 L2.5516492,3.79482353 L2.5516492,3.93035294 C2.5516492,4.50258824 2.13383529,4.92423529 1.56680214,4.92423529 C0.999768984,4.92423529 0.58195508,4.50258824 0.58195508,3.93035294 L0.58195508,1.55105882 C0.58195508,0.978823529 0.999768984,0.557176471 1.56680214,0.557176471 C2.13383529,0.557176471 2.5516492,0.978823529 2.5516492,1.55105882 L2.5516492,1.68658824 L3.13360428,1.68658824 L3.13360428,1.61129412 C3.13360428,0.677647059 2.47703957,0 1.56680214,0 C0.656564706,0 0,0.677647059 0,1.61129412 L0,3.87011765 C0,4.80376471 0.656564706,5.48141176 1.56680214,5.48141176 Z" id="Path"></path>
                                <path d="M5.59572193,5.48141176 C6.50595936,5.48141176 7.16252406,4.80376471 7.16252406,3.87011765 L7.16252406,1.61129412 C7.16252406,0.677647059 6.50595936,0 5.59572193,0 C4.68548449,0 4.02891979,0.677647059 4.02891979,1.61129412 L4.02891979,3.87011765 C4.02891979,4.80376471 4.68548449,5.48141176 5.59572193,5.48141176 Z M4.61087487,3.93035294 L4.61087487,1.55105882 C4.61087487,0.978823529 5.02868877,0.557176471 5.59572193,0.557176471 C6.16275508,0.557176471 6.58056898,0.978823529 6.58056898,1.55105882 L6.58056898,3.93035294 C6.58056898,4.50258824 6.16275508,4.92423529 5.59572193,4.92423529 C5.02868877,4.92423529 4.61087487,4.50258824 4.61087487,3.93035294 Z" id="Shape"></path>
                            </g>
                            <g id="2" transform="translate(7.854374, 4.005647)">
                                <path d="M0,2.688 L1.56680214,2.688 L1.56680214,2.40941176 L0.343204278,2.40941176 L1.07437861,1.66776471 C1.43623529,1.29882353 1.54814973,1.07670588 1.54814973,0.756705882 C1.54814973,0.32 1.22732834,0 0.78340107,0 C0.339473797,0 0.0186524064,0.32 0.0186524064,0.756705882 L0.0186524064,0.858352941 L0.309629947,0.858352941 L0.309629947,0.756705882 C0.309629947,0.481882353 0.511075936,0.278588235 0.78340107,0.278588235 C1.0557262,0.278588235 1.25717219,0.481882353 1.25717219,0.764235294 C1.25717219,1.01647059 1.16764064,1.17835294 0.850549733,1.50211765 L0,2.36423529 L0,2.688 Z" id="Path"></path>
                            </g>
                        </g>
                    </g>
                </g>
            </g>
        </g>
    </g>
</svg>